<?xml version="1.0" standalone="no"?>
<!DOCTYPE svg PUBLIC "-//W3C//DTD SVG 1.1//EN" "http://www.w3.org/Graphics/SVG/1.1/DTD/svg11.dtd" >
<svg xmlns="http://www.w3.org/2000/svg" xmlns:xlink="http://www.w3.org/1999/xlink" version="1.1">
<metadata></metadata>
<defs>
<font id="lackregular" horiz-adv-x="672" >
<font-face units-per-em="1000" ascent="750" descent="-250" />
<missing-glyph horiz-adv-x="260" />
<glyph unicode="&#xfb01;" horiz-adv-x="785" d="M160 0v370h-110v88h110q0 119 78 189t191 70q41 0 74 -8.5t52 -20.5t31.5 -24t17.5 -20l4 -9v-108q-2 4 -6 10t-19.5 22.5t-33.5 29t-48.5 22.5t-64.5 10q-75 0 -121.5 -42.5t-46.5 -120.5h347v-380h120v-78h-348v78h120v292h-239v-370h-108z" />
<glyph unicode="&#xfb02;" horiz-adv-x="701" d="M160 0v370h-110v88h110q0 120 67 189.5t168 69.5q50 0 91.5 -13t65.5 -31.5t40.5 -37.5t22.5 -32l6 -13l-2 -1l2 -1v-588h-108v563l-3 6t-10.5 14t-20 17.5t-33 14t-46.5 6.5q-132 0 -132 -163h163v-88h-163v-370h-108z" />
<glyph horiz-adv-x="0" />
<glyph horiz-adv-x="333" />
<glyph unicode="&#xd;" horiz-adv-x="260" />
<glyph unicode=" "  horiz-adv-x="260" />
<glyph unicode="&#x09;" horiz-adv-x="260" />
<glyph unicode="&#xa0;" horiz-adv-x="260" />
<glyph unicode="!" horiz-adv-x="340" d="M112 261v438h117v-438h-117zM170 -7q-34 0 -57 22.5t-23 57.5q0 33 23 56.5t57 23.5q33 0 56.5 -23.5t23.5 -56.5q0 -34 -23.5 -57t-56.5 -23z" />
<glyph unicode="&#x22;" horiz-adv-x="365" d="M56 452l-16 246h109l-16 -246h-77zM232 452l-16 246h109l-16 -246h-77z" />
<glyph unicode="#" horiz-adv-x="704" d="M56 -2l76 190h-108v102h145l33 83h-135v102h174l67 174h117l-67 -174h101l67 174h117l-67 -174h108v-102h-147l-33 -83h137v-102h-177l-73 -190h-117l73 190h-101l-73 -190h-117zM286 290h101l33 83h-101z" />
<glyph unicode="$" horiz-adv-x="582" d="M527 179q0 -69 -48 -120t-130 -67v-75h-109v68q-126 8 -195 69v112q100 -79 227 -79q143 0 143 93q0 36 -31.5 59.5t-109.5 55.5q-109 45 -154.5 91.5t-45.5 130.5q0 64 45 110.5t121 63.5v59h109v-52q75 -7 139 -51v-117q-70 65 -179 65q-57 -1 -90 -21t-33 -57 q0 -41 28.5 -62.5t108.5 -54.5q111 -46 157.5 -91.5t46.5 -129.5z" />
<glyph unicode="%" horiz-adv-x="721" d="M205 407q-60 0 -102.5 42.5t-42.5 102.5q0 61 42.5 104t102.5 43q61 0 104 -43t43 -104q0 -60 -43 -102.5t-104 -42.5zM120 -16l382 713h86l-382 -713h-86zM205 477q32 0 54.5 22t22.5 53q0 32 -23 54.5t-54 22.5t-53 -22.5t-22 -54.5q0 -31 22 -53t53 -22zM514 -16 q-60 0 -102.5 42.5t-42.5 102.5q0 61 42.5 104t102.5 43q61 0 104 -43t43 -104q0 -60 -43 -102.5t-104 -42.5zM514 54q32 0 54.5 22t22.5 53t-22.5 54t-54.5 23q-31 0 -53 -22.5t-22 -54.5q0 -31 22 -53t53 -22z" />
<glyph unicode="&#x26;" horiz-adv-x="709" d="M269 -15q-102 0 -166 49q-63 50 -63 138q0 58 36 102.5t113 84.5q-70 89 -70 158q0 84 49.5 131t137.5 47q85 0 132.5 -43t47.5 -118q0 -47 -38.5 -98t-106.5 -93l80 -86l62 -66l116 117v-115l-58 -62l128 -131h-136q-4 4 -25.5 27t-34.5 35q-82 -77 -204 -77zM289 402 q94 58 94 123q0 35 -20 55t-57 20t-56.5 -20.5t-19.5 -54.5q0 -59 59 -123zM283 80q69 0 127 46l-168 169q-41 -19 -65.5 -51.5t-24.5 -72.5q0 -44 35.5 -67.5t95.5 -23.5z" />
<glyph unicode="'" horiz-adv-x="223" d="M30 402l34 296h129l-76 -296h-87z" />
<glyph unicode="(" horiz-adv-x="368" d="M178 -124q-12 26 -30 69.5t-48 162t-30 216.5t27 204.5t54 163.5l27 58h117q-5 -8 -12 -23.5t-26.5 -62.5t-34 -95t-26.5 -115.5t-12 -129.5t11.5 -130.5t28 -123t33.5 -99.5t29 -70l11 -25h-119z" />
<glyph unicode=")" horiz-adv-x="358" d="M71 -124q5 9 12.5 26t27 68t34.5 101.5t27 120.5t12 132q0 98 -28 204.5t-56 163.5l-27 58h107q4 -8 11.5 -23.5t26 -62.5t33 -95t26 -115.5t11.5 -129.5q0 -98 -27 -210t-54 -175l-27 -63h-109z" />
<glyph unicode="*" horiz-adv-x="427" d="M175 342l7 123l-103 -68l-39 68l111 55l-111 55l39 68l103 -68l-7 123h77l-7 -124l103 69l39 -68l-111 -55l111 -55l-39 -67l-103 68l7 -124h-77z" />
<glyph unicode="+" horiz-adv-x="677" d="M280 100v203h-208v103h208v203h117v-203h208v-103h-208v-203h-117z" />
<glyph unicode="," horiz-adv-x="333" d="M20 -151l90 256h133l-121 -256h-102z" />
<glyph unicode="-" horiz-adv-x="514" d="M71 244v102h372v-102h-372z" />
<glyph unicode="." horiz-adv-x="320" d="M160 -7q-34 0 -57 22.5t-23 57.5q0 33 23 56.5t57 23.5q33 0 56.5 -23.5t23.5 -56.5q0 -34 -23.5 -57t-56.5 -23z" />
<glyph unicode="/" horiz-adv-x="455" d="M0 -57l338 757h117l-338 -757h-117z" />
<glyph unicode="0" horiz-adv-x="600" d="M301 -15q-123 -2 -188 99.5t-63 255.5q-2 153 62.5 253t188.5 102q83 -1 141 -50t84 -127t24 -178q2 -155 -62 -256t-187 -99zM301 88q137 0 137 252q0 253 -137 253q-42 0 -71 -23.5t-43 -64t-19.5 -80t-5.5 -85.5q0 -252 139 -252z" />
<glyph unicode="1" horiz-adv-x="531" d="M70 0v96h160v488h-160v95h269v-583h142v-96h-411z" />
<glyph unicode="2" horiz-adv-x="599" d="M119 0l1 1h-60l226 273q-84 8 -141.5 68.5t-57.5 143.5q0 88 65 150.5t156 62.5t156 -62.5t65 -150.5q0 -83 -56 -142l-208 -248h261v-96h-407zM308 376q47 0 78.5 32t31.5 78t-31.5 78t-78.5 32t-78.5 -32t-31.5 -78t31.5 -78t78.5 -32z" />
<glyph unicode="3" horiz-adv-x="586" d="M303 -15q-97 0 -165 65.5t-68 158.5h113q0 -50 34.5 -84.5t85.5 -34.5t85.5 34.5t34.5 84.5q0 51 -34.5 85.5t-85.5 34.5q-25 0 -48 -9l87 264h-245v95h386l-90 -263h1q64 -26 103 -82t39 -125q0 -93 -68 -158.5t-165 -65.5z" />
<glyph unicode="4" horiz-adv-x="574" d="M377 1v226h-327l253 452h117l-197 -358h271v-320h-117z" />
<glyph unicode="5" horiz-adv-x="566" d="M283 -15q-97 0 -165 65.5t-68 158.5h113q0 -50 34.5 -84.5t85.5 -34.5t85.5 34.5t34.5 84.5q0 51 -34.5 85.5t-85.5 34.5q-32 0 -57 -14l-52 21v343h335v-95h-226v-150q49 0 91 -18q64 -26 103 -82t39 -125q0 -93 -68 -158.5t-165 -65.5z" />
<glyph unicode="6" horiz-adv-x="606" d="M303 -14q-97 0 -165 65.5t-68 158.5q0 89 64 155l250 314h134l-192 -245q89 -8 149.5 -72.5t60.5 -151.5q0 -93 -68 -158.5t-165 -65.5zM303 91q51 0 85.5 34.5t34.5 84.5q0 51 -34.5 85.5t-85.5 34.5t-85.5 -34.5t-34.5 -85.5q0 -50 34.5 -84.5t85.5 -34.5z" />
<glyph unicode="7" horiz-adv-x="530" d="M101 0l219 584h-250v95h400l-250 -679h-119z" />
<glyph unicode="8" horiz-adv-x="566" d="M283 -14q-99 0 -168 63.5t-69 152.5q0 52 26 97.5t71 75.5q-56 54 -56 133q0 78 57 133.5t139 55.5t139 -55.5t57 -133.5q0 -79 -56 -133q45 -30 71 -75.5t26 -97.5q0 -89 -69 -152.5t-168 -63.5zM283 417q40 0 66.5 26.5t26.5 64.5q0 39 -26.5 65.5t-66.5 26.5 t-66.5 -26.5t-26.5 -65.5q0 -38 26.5 -64.5t66.5 -26.5zM283 81q54 0 90.5 34.5t36.5 85.5q0 50 -36.5 84t-90.5 34t-90.5 -34t-36.5 -84q0 -51 36.5 -85.5t90.5 -34.5z" />
<glyph unicode="9" horiz-adv-x="566" d="M75 0l193 246q-92 6 -155 71t-63 154q0 93 68 158.5t165 65.5t165 -65.5t68 -158.5q0 -68 -38 -123h1l-277 -348h-127zM283 351q51 0 85.5 34.5t34.5 85.5q0 50 -34.5 84.5t-85.5 34.5t-85.5 -34.5t-34.5 -84.5q0 -51 34.5 -85.5t85.5 -34.5z" />
<glyph unicode=":" horiz-adv-x="446" d="M223 319q-35 0 -57.5 22.5t-22.5 57.5q0 33 23 56.5t57 23.5q33 0 56.5 -23.5t23.5 -56.5q0 -34 -23.5 -57t-56.5 -23zM223 -7q-35 0 -57.5 22.5t-22.5 57.5q0 33 23 56.5t57 23.5q33 0 56.5 -23.5t23.5 -56.5q0 -34 -23.5 -57t-56.5 -23z" />
<glyph unicode=";" horiz-adv-x="418" d="M223 319q-35 0 -57.5 22.5t-22.5 57.5q0 33 23 56.5t57 23.5q33 0 56.5 -23.5t23.5 -56.5q0 -34 -23.5 -57t-56.5 -23zM54 -151l90 256h133l-121 -256h-102z" />
<glyph unicode="&#x3c;" horiz-adv-x="539" d="M489 0l-439 250v65l439 202v-100l-319 -133l319 -184v-100z" />
<glyph unicode="=" horiz-adv-x="630" d="M91 393v102h449v-102h-449zM91 188v102h449v-102h-449z" />
<glyph unicode="&#x3e;" horiz-adv-x="539" d="M50 0v100l319 184l-319 133v100l439 -202v-65z" />
<glyph unicode="?" horiz-adv-x="355" d="M89 221v155q47 0 78.5 32t31.5 78t-31.5 78t-78.5 32v103q91 0 156 -62.5t65 -150.5q0 -59 -31 -108.5t-82 -77.5v-79h-108zM140 -7q-34 0 -57 22.5t-23 57.5q0 33 23 56.5t57 23.5q33 0 56.5 -23.5t23.5 -56.5q0 -34 -23.5 -57t-56.5 -23z" />
<glyph unicode="@" horiz-adv-x="851" d="M432 -170q-162 0 -277 111t-115 269q0 157 113 268.5t272 111.5q165 0 275.5 -100.5t110.5 -259.5q0 -101 -50.5 -152.5t-120.5 -51.5q-80 0 -97 59q-21 -27 -57 -43.5t-66 -16.5q-84 0 -140.5 56t-56.5 137t56.5 136.5t139.5 55.5q68 0 106 -41v31h86v-250q0 -46 34 -46 q33 0 52.5 38t19.5 77q0 136 -83 207.5t-209 71.5q-117 0 -201 -85t-84 -203q0 -119 85.5 -203.5t206.5 -84.5v-92zM419 109q46 0 76 29t30 80q0 50 -30 79.5t-76 29.5q-44 0 -75 -32t-31 -77t31 -77t75 -32z" />
<glyph unicode="A" horiz-adv-x="753" d="M21 0l302 679h107l302 -679h-127l-65 161h-327l-65 -161h-127zM254 263h245l-122 289z" />
<glyph unicode="B" horiz-adv-x="666" d="M476 369q68 -6 109 -51t41 -112q0 -102 -64 -154t-176 -52h-296v679h278q111 0 166 -42.5t55 -132.5q0 -56 -31 -91t-82 -44zM354 577h-155v-169h149q70 0 102 19t32 69q-3 52 -33 66.5t-95 14.5zM378 102q133 0 133 106q0 103 -133 103h-179v-209h179z" />
<glyph unicode="C" horiz-adv-x="704" d="M420 -15q-164 -2 -270.5 102t-104.5 253q-2 149 104.5 253t270.5 102q132 0 220 -60v-115q-4 7 -31.5 23.5t-81 33t-107.5 16.5q-121 0 -191.5 -71.5t-70.5 -181.5t70.5 -181t191.5 -71q68 0 132 19.5t107 55.5v-117q-1 0 -8.5 -5t-14 -8.5t-19.5 -9.5t-26 -11t-32.5 -10 t-39 -8.5t-45.5 -6t-54 -2.5z" />
<glyph unicode="D" horiz-adv-x="760" d="M336 679q172 0 270.5 -94t98.5 -245q0 -150 -101 -245t-268 -95h-246v679h246zM328 103q121 0 190.5 59t73.5 178q0 112 -67.5 174.5t-197.5 62.5h-128v-474h129z" />
<glyph unicode="E" horiz-adv-x="642" d="M199 102h393v-102h-502v679h496v-102h-387v-164h308v-102h-308v-209z" />
<glyph unicode="F" horiz-adv-x="624" d="M586 577h-387v-164h308v-102h-308v-311h-109v679h496v-102z" />
<glyph unicode="G" horiz-adv-x="776" d="M407 -15q-155 0 -257 103.5t-100 251.5q-2 149 104.5 253t270.5 102q87 0 147 -22q64 -21 92 -39v-116q-27 23 -88 48q-62 27 -151 27q-121 0 -191.5 -71.5t-70.5 -181.5q0 -107 69 -180t175 -73q103 0 184 61v147h-203v102h312v-397h-109v35q-80 -50 -184 -50z" />
<glyph unicode="H" horiz-adv-x="751" d="M552 679h109v-679h-109v311h-353v-311h-109v679h109v-266h353v266z" />
<glyph unicode="I" horiz-adv-x="289" d="M90 0v679h109v-679h-109z" />
<glyph unicode="J" horiz-adv-x="542" d="M229 -15q-42 0 -89 12.5t-73 25t-26 15.5v104q12 -7 34 -17.5t64.5 -23.5t74.5 -13q82 0 118 32.5t36 106.5v452h109v-450q0 -116 -67 -180t-181 -64z" />
<glyph unicode="K" horiz-adv-x="686" d="M90 0v679h108v-309l328 309h142l-300 -275l300 -404h-136l-243 329l-91 -86v-243h-108z" />
<glyph unicode="L" horiz-adv-x="648" d="M90 0v679h108v-577h412v-102h-520z" />
<glyph unicode="M" horiz-adv-x="827" d="M90 0v679h127l196 -302v-1l197 303h127v-679h-108v515l-166 -252h-99l-166 252v-515h-108z" />
<glyph unicode="N" horiz-adv-x="771" d="M90 0v679h125l358 -514v514h108v-679h-121l-362 523v-523h-108z" />
<glyph unicode="O" horiz-adv-x="803" d="M401 -15q-153 -2 -255.5 102.5t-100.5 252.5q-2 148 100.5 252.5t255.5 102.5q153 2 256 -102.5t101 -252.5q2 -148 -101 -252.5t-256 -102.5zM401 88q110 0 177 71.5t67 180.5t-67 181t-177 72q-109 0 -176.5 -72t-67.5 -181t67.5 -180.5t176.5 -71.5z" />
<glyph unicode="P" horiz-adv-x="698" d="M409 679q103 0 171.5 -62t68.5 -161t-69 -161t-174 -62h-207v-233h-109v679h319zM401 333q57 0 96.5 33.5t39.5 87.5t-39.5 88.5t-96.5 34.5h-202v-244h202z" />
<glyph unicode="Q" horiz-adv-x="803" d="M783 87v-102h-371h-11q-153 -2 -255.5 102.5t-100.5 252.5q-2 148 100.5 252.5t255.5 102.5q153 2 256 -102.5t101 -252.5q3 -147 -101 -253h126zM157 340q0 -109 67.5 -180.5t176.5 -71.5q110 0 177 71.5t67 180.5t-67 181t-177 72q-109 0 -176.5 -72t-67.5 -181z" />
<glyph unicode="R" horiz-adv-x="689" d="M466 272l202 -272h-136l-194 263h-139v-263h-109v679h299q105 0 172.5 -55t67.5 -153q0 -77 -44 -128.5t-119 -70.5zM199 363h182q59 0 97.5 27t38.5 79q0 53 -38.5 80.5t-97.5 27.5h-182v-214z" />
<glyph unicode="S" horiz-adv-x="582" d="M272 -16q-147 0 -227 70v112q100 -79 227 -79q143 0 143 93q0 36 -31.5 59.5t-109.5 55.5q-109 45 -154.5 91.5t-45.5 130.5q0 80 69 131t176 51q90 1 169 -52v-117q-70 65 -179 65q-57 -1 -90 -21t-33 -57q0 -41 28.5 -62.5t108.5 -54.5q111 -46 157.5 -91.5 t46.5 -129.5q0 -85 -70.5 -140t-184.5 -55z" />
<glyph unicode="T" horiz-adv-x="664" d="M278 0v577h-238v102h584v-102h-238v-577h-108z" />
<glyph unicode="U" horiz-adv-x="706" d="M353 -15q-128 0 -203 67.5t-75 206.5v420h109v-418q0 -86 47.5 -128.5t121.5 -42.5q84 0 126.5 41t42.5 130v418h109v-420q0 -139 -75 -206.5t-203 -67.5z" />
<glyph unicode="V" horiz-adv-x="702" d="M290 0l-259 679h124l193 -532l199 532h124l-259 -679h-122z" />
<glyph unicode="W" horiz-adv-x="1034" d="M242 0l-211 679h124l151 -542l150 542h122l151 -542l150 542h124l-211 -679h-126l-149 524l-148 -524h-127z" />
<glyph unicode="X" horiz-adv-x="711" d="M31 0l257 358l-242 321h132l174 -242l178 242h132l-245 -322l263 -357h-132l-196 269l-189 -269h-132z" />
<glyph unicode="Y" horiz-adv-x="676" d="M525 679h131l-263 -388v-291h-110v291l-263 388h130l188 -289z" />
<glyph unicode="Z" horiz-adv-x="684" d="M75 0v102l403 475h-384v102h522v-102l-400 -475h413v-102h-554z" />
<glyph unicode="[" horiz-adv-x="375" d="M70 -125v874h235v-102h-118v-671h118v-101h-235z" />
<glyph unicode="\" horiz-adv-x="455" d="M338 -57l-338 757h117l338 -757h-117z" />
<glyph unicode="]" horiz-adv-x="375" d="M70 -125v101h118v671h-118v102h235v-874h-235z" />
<glyph unicode="^" horiz-adv-x="617" d="M50 320l222 379h65l230 -379h-100l-162 269l-155 -269h-100z" />
<glyph unicode="_" horiz-adv-x="745" d="M71 -62v62h603v-62h-603z" />
<glyph unicode="`" horiz-adv-x="263" d="M142 586l-122 171h133l90 -171h-101z" />
<glyph unicode="a" d="M310 -15q-117 0 -193.5 79t-76.5 194t76.5 194.5t193.5 79.5q109 0 174 -65v50h107v-517h-109l1 53q-66 -68 -173 -68zM318 81q74 0 123 48t49 130t-49 129.5t-123 47.5q-72 0 -121 -51.5t-49 -125.5t49 -126t121 -52z" />
<glyph unicode="b" d="M362 -15q-107 0 -173 68l1 -53h-109v679l107 18v-230q65 65 174 65q117 0 193.5 -79.5t76.5 -194.5t-76.5 -194t-193.5 -79zM354 81q72 0 122.5 52t50.5 126t-50 125.5t-123 51.5q-74 0 -123 -47.5t-49 -129.5t49 -130t123 -48z" />
<glyph unicode="c" horiz-adv-x="553" d="M333 -15q-139 0 -216 77.5t-77 196.5q0 115 79.5 194t203.5 79q119 0 185 -62v-111q-2 3 -7 8.5t-22.5 19t-37 23.5t-51.5 18.5t-67 8.5q-76 0 -127 -52t-51 -126q0 -81 51 -130t137 -49q54 0 100 13.5t65 26.5l20 14v-100q-32 -25 -84.5 -37t-100.5 -12z" />
<glyph unicode="d" d="M310 -15q-117 0 -193.5 79t-76.5 194t76.5 194.5t193.5 79.5q109 0 174 -65v212l108 18v-697h-110l1 53q-66 -68 -173 -68zM318 81q74 0 123 48t49 130t-49 129.5t-123 47.5q-73 0 -123 -51.5t-50 -125.5t50.5 -126t122.5 -52z" />
<glyph unicode="e" horiz-adv-x="596" d="M326 -15q-132 0 -209 79t-77 195q0 117 79.5 195t199.5 78q107 0 172 -74.5t65 -174.5v-50h-413q10 -66 56.5 -109t128.5 -43q20 0 40 2t37 5t32.5 7t28 8.5t23.5 9t19 8.5t13.5 7t8.5 5l3 2v-97q-2 -2 -7 -5.5t-22.5 -13t-39 -16.5t-59 -12.5t-79.5 -5.5zM148 317h300 q-2 19 -8.5 37.5t-21.5 40.5t-44 35.5t-69 13.5q-74 0 -112 -41.5t-45 -85.5z" />
<glyph unicode="f" horiz-adv-x="521" d="M140 0v370h-110v88h110q0 121 60.5 190t159.5 69q49 0 85.5 -13.5t48.5 -27.5l12 -13v-96q-6 6 -16.5 15t-44.5 24t-70 15q-63 0 -95 -38t-32 -125h233v-88h-233v-370h-108z" />
<glyph unicode="g" horiz-adv-x="645" d="M295 -225q-67 0 -119 13.5t-70 26.5l-18 13v97q9 -6 25 -15t69 -24t109 -15q191 0 191 169v12q-65 -67 -172 -67q-117 0 -193.5 79t-76.5 194t76.5 194.5t193.5 79.5q109 0 174 -65v50h108l-2 -463q0 -123 -72 -201t-223 -78zM318 81q74 0 123 48t49 130t-49 129.5 t-123 47.5q-72 0 -121 -51.5t-49 -125.5t49 -126t121 -52z" />
<glyph unicode="h" horiz-adv-x="627" d="M349 533q91 0 149.5 -56t58.5 -159v-318h-108v307q0 62 -31 96t-85 34q-60 0 -102.5 -38.5t-42.5 -107.5v-291h-108v679l108 18v-244q1 3 4.5 8.5t16 19.5t29 24.5t46.5 19t65 8.5z" />
<glyph unicode="i" horiz-adv-x="283" d="M141 591q-25 0 -43 17.5t-18 43.5t17.5 44t43.5 18t44 -18t18 -44t-18 -43.5t-44 -17.5zM92 0v518h108v-518h-108z" />
<glyph unicode="j" horiz-adv-x="268" d="M135 591q-25 0 -43 17.5t-18 43.5t17.5 44t43.5 18t44 -18t18 -44t-18 -43.5t-44 -17.5zM37 -224q-49 0 -85.5 16t-48.5 32l-12 15v112q6 -9 16.5 -22t44.5 -35t70 -22t51.5 25.5t15.5 62.5v558h108v-549q0 -26 -3.5 -50t-14.5 -51t-28 -46.5t-46.5 -32.5t-67.5 -13z" />
<glyph unicode="k" horiz-adv-x="576" d="M447 0l-211 258l-48 -41v-217h-108v679l108 18v-362l218 182h140l-230 -193l270 -324h-139z" />
<glyph unicode="l" horiz-adv-x="268" d="M80 0v679l108 18v-697h-108z" />
<glyph unicode="m" horiz-adv-x="941" d="M678 533q89 0 141 -55.5t52 -159.5v-318h-108v307q0 130 -101 130q-53 0 -91.5 -38.5t-38.5 -107.5v-291h-108v307q0 130 -101 130q-48 0 -85.5 -33t-43.5 -93v-311h-108v517h108v-62q6 13 17 27.5t46 32.5t82 18q113 0 163 -85q45 85 176 85z" />
<glyph unicode="n" horiz-adv-x="633" d="M355 533q91 0 149.5 -56t58.5 -159v-318h-108v307q0 62 -31 96t-85 34q-60 0 -102.5 -38.5t-42.5 -107.5v-291h-108v517h108v-64q1 3 4.5 8.5t16 19.5t29 24.5t46.5 19t65 8.5z" />
<glyph unicode="o" horiz-adv-x="646" d="M323 -15q-118 0 -200.5 80t-82.5 193t82.5 193.5t200.5 80.5t200.5 -80.5t82.5 -193.5t-82.5 -193t-200.5 -80zM323 82q76 0 127.5 51.5t51.5 124.5q0 74 -51.5 125.5t-127.5 51.5t-127.5 -51.5t-51.5 -125.5q0 -73 51.5 -124.5t127.5 -51.5z" />
<glyph unicode="p" d="M80 -212v729h108v-50q65 65 174 65q117 0 193.5 -79.5t76.5 -194.5t-76.5 -194t-193.5 -79q-110 0 -174 70v-267h-108zM364 81q72 0 117.5 51t45.5 126t-46 126.5t-117 51.5q-76 0 -129 -48t-53 -130q0 -81 53 -129t129 -48z" />
<glyph unicode="q" horiz-adv-x="669" d="M484 -212v267q-64 -70 -174 -70q-117 0 -193.5 79t-76.5 194t76.5 194.5t193.5 79.5q109 0 174 -65v50h108v-729h-108zM308 81q76 0 129 48t53 129q0 82 -53 130t-129 48q-71 0 -117 -51.5t-46 -126.5t45.5 -126t117.5 -51z" />
<glyph unicode="r" horiz-adv-x="410" d="M80 0v518h108v-100q19 50 76 82.5t136 32.5v-89q-97 0 -153.5 -50.5t-58.5 -134.5v-259h-108z" />
<glyph unicode="s" horiz-adv-x="437" d="M193 -15q-39 0 -77.5 12t-57.5 25l-18 12v106q8 -7 21.5 -16.5t53.5 -26t77 -16.5q104 0 104 55q0 26 -22 46t-74 49q-24 13 -34 19t-29.5 19t-28 23t-19.5 25t-15 32.5t-4 38.5q0 64 49.5 104t121.5 40q77 0 134 -34v-106q-46 44 -121 44q-82 0 -82 -46q0 -5 1 -9.5 t2.5 -8t5 -8t7 -7.5t10 -8t11.5 -8.5t15.5 -9.5t18 -10.5t21.5 -12.5t25 -14q57 -33 82.5 -65t25.5 -87q0 -66 -51 -111.5t-153 -45.5z" />
<glyph unicode="t" horiz-adv-x="502" d="M204 0v443h-199l307 253v-165h177v-88h-177v-443h-108z" />
<glyph unicode="u" horiz-adv-x="610" d="M305 -16q-235 0 -235 225v308h108v-311q0 -5 0.5 -13.5t6.5 -30.5t17.5 -39t38.5 -30.5t64 -13.5t64 13t38.5 32t18 37.5t6.5 31.5v13v311h108v-308q0 -225 -235 -225z" />
<glyph unicode="v" horiz-adv-x="550" d="M275 -41l-270 558h113l158 -338l156 338h113z" />
<glyph unicode="w" horiz-adv-x="747" d="M230 -41l-200 558h113l103 -298l126 319l137 -320l95 299h113l-200 -558l-146 345z" />
<glyph unicode="x" horiz-adv-x="623" d="M25 0l222 278l-202 239h130l141 -172l144 172h118l-201 -247l221 -270h-130l-158 202l-160 -202h-125z" />
<glyph unicode="y" horiz-adv-x="586" d="M102 -208l135 268l-217 457h113l160 -343l160 343h113l-349 -725h-115z" />
<glyph unicode="z" horiz-adv-x="576" d="M50 0v74l327 350h-307v94h446v-84l-318 -340h328v-94h-476z" />
<glyph unicode="{" horiz-adv-x="366" d="M296 -125q-94 1 -134 38.5t-40 113.5q0 172 -4 197q-7 36 -32 41q-7 1 -16 1v93q37 0 44.5 32.5t7.5 156.5v50q0 76 40 113.5t134 38.5v-92q-45 0 -60.5 -21.5t-15.5 -78.5q0 -17 0.5 -53.5t0 -50.5t-2 -40.5t-5.5 -37.5t-11.5 -26.5t-19.5 -23.5t-29 -13q15 -4 26 -12.5 t18.5 -17t12 -24.5t7 -27.5t3.5 -35t1 -38t-0.5 -44.5t-0.5 -47q0 -57 15.5 -78.5t60.5 -21.5v-92z" />
<glyph unicode="|" horiz-adv-x="236" d="M74 -50v789h87v-789h-87z" />
<glyph unicode="}" horiz-adv-x="366" d="M70 -125v92q45 0 60.5 21.5t15.5 78.5q0 17 -0.5 47t-0.5 44.5t1 38t3.5 35t7 27.5t12 24.5t18.5 17t26 12.5q-17 5 -29 13t-19.5 23.5t-11.5 26.5t-5.5 37.5t-2 40.5t0 50.5t0.5 53.5q0 57 -15.5 78.5t-60.5 21.5v92q94 -1 134 -38.5t40 -113.5q0 -168 4 -194 q7 -39 33 -44q7 -1 15 -1v-93q-38 0 -45 -30t-7 -156v-53q0 -76 -40 -113.5t-134 -38.5z" />
<glyph unicode="~" horiz-adv-x="547" d="M373 204q-30 0 -101 27q-7 3 -23 10t-27.5 11t-20.5 4q-5 0 -9.5 -1t-7.5 -2.5t-5.5 -3.5t-5 -5.5t-3.5 -5.5t-2.5 -6.5t-2 -6.5t-2 -7.5t-1.5 -6.5l-112 30q11 47 41.5 77t82.5 30q42 0 101 -27q55 -25 71 -25q5 0 9.5 1t7.5 2.5t5.5 3.5t5 5.5t3.5 5.5t2.5 6.5t2 6.5 t2 7.5t1.5 6.5l112 -30q-26 -107 -124 -107z" />
<glyph unicode="&#xa1;" horiz-adv-x="344" d="M172 371q-34 0 -57 23.5t-23 56.5q0 35 23 57.5t57 22.5q33 0 56.5 -23t23.5 -57q0 -33 -23.5 -56.5t-56.5 -23.5zM114 -175v438h117v-438h-117z" />
<glyph unicode="&#xa2;" horiz-adv-x="500" d="M411 441q-88 0 -154 -45t-66 -134q0 -46 19.5 -81.5t52.5 -55t70.5 -29t77.5 -9.5v-103q-33 0 -71 5v-114h-106v145q-152 69 -152 242q0 172 152 243v166h105v-135q36 6 72 6v-101z" />
<glyph unicode="&#xa3;" horiz-adv-x="642" d="M139 0v310h-105v103h105v80q0 87 65.5 154t158.5 67q86 0 148.5 -60.5t62.5 -145.5h-108q0 39 -28.5 66.5t-69.5 27.5t-69.5 -27.5t-28.5 -66.5h1v-95h188v-103h-189v-207h315l-1 -103h-445z" />
<glyph unicode="&#xa4;" horiz-adv-x="630" d="M163 91l-73 73l43 43q-32 51 -32 109q0 59 32 109l-43 43l73 73l45 -45q48 28 107 28t107 -28l45 45l73 -73l-43 -43q32 -50 32 -109q0 -58 -32 -109l43 -43l-73 -73l-45 45q-51 -27 -107 -27t-107 27zM315 207q47 0 79.5 32t32.5 77q0 46 -32.5 78t-79.5 32t-79.5 -32 t-32.5 -78q0 -45 32.5 -77t79.5 -32z" />
<glyph unicode="&#xa5;" horiz-adv-x="653" d="M656 679l-228 -336h103v-102h-138v-49h138v-102h-138v-90h-110v90h-160v102h160v49h-160v102h125l-228 336h130l188 -289l187 289h131z" />
<glyph unicode="&#xa6;" horiz-adv-x="235" d="M74 383v356h87v-356h-87zM74 -125v356h87v-356h-87z" />
<glyph unicode="&#xa7;" horiz-adv-x="487" d="M193 -93q-39 0 -77.5 12.5t-57.5 24.5l-18 12v106q8 -7 21.5 -16.5t53.5 -26t77 -16.5q104 0 104 55q0 11 -5 21.5t-17 21.5t-20 17.5t-26 18.5t-23 16q-2 1 -15 10.5t-16 12t-15 12t-16 13.5l-13.5 13.5t-13.5 16t-10.5 16.5t-9 18.5t-4.5 19.5t-2 22q0 51 36 85.5 t99 41.5q-43 32 -64 58.5t-21 59.5q0 65 48.5 106t122.5 41q28 0 56.5 -8.5t42.5 -16.5l15 -9v-86q-59 34 -111 34q-32 0 -50 -13.5t-18 -37.5q0 -10 5.5 -20t17.5 -20.5t21 -17.5t27.5 -19.5t25.5 -17.5q27 -20 36.5 -27.5t30 -28.5t29 -44t8.5 -52q0 -47 -37.5 -85.5 t-84.5 -37.5q72 -47 72 -122q0 -72 -50.5 -117.5t-153.5 -45.5zM346 303q0 28 -24 46.5t-58 18.5q-32 0 -50 -13.5t-18 -37.5q0 -38 37.5 -56t75 -6t37.5 48z" />
<glyph unicode="&#xa8;" horiz-adv-x="343" d="M76 598q-23 0 -39.5 16t-16.5 39t16.5 39.5t39.5 16.5t39 -16.5t16 -39.5t-16.5 -39t-38.5 -16zM268 598q-23 0 -39.5 16t-16.5 39t16.5 39.5t39.5 16.5t39 -16.5t16 -39.5t-16.5 -39t-38.5 -16z" />
<glyph unicode="&#xa9;" horiz-adv-x="849" d="M424 -67q-148 0 -252 104t-104 252t104 252.5t252 104.5t252.5 -104.5t104.5 -252.5t-104.5 -252t-252.5 -104zM424 1q120 0 204.5 84t84.5 204t-84.5 204.5t-204.5 84.5t-204 -84.5t-84 -204.5t84 -204t204 -84zM444 73q-110 0 -170.5 61t-60.5 155q0 92 62.5 154 t160.5 62q94 0 146 -49v-84q-2 3 -6 7t-17.5 14.5t-29 19t-41 15t-52.5 6.5q-60 0 -102.5 -43t-42.5 -102q0 -63 42.5 -104t110.5 -41q42 0 78.5 11t51.5 21l16 11v-75q-50 -39 -146 -39z" />
<glyph unicode="&#xaa;" horiz-adv-x="387" d="M188 246q-60 0 -99 40.5t-39 99.5t39 100t99 41q25 0 45.5 -9.5t27.5 -23.5v25h76l-1 -265h-76l1 27q-7 -16 -27 -25.5t-46 -9.5zM192 318q29 0 48 18.5t19 50.5q0 31 -19 49.5t-48 18.5q-28 0 -46.5 -19.5t-18.5 -48.5t18.5 -49t46.5 -20z" />
<glyph unicode="&#xab;" horiz-adv-x="504" d="M166 60l-130 204l130 194h118l-130 -194l130 -204h-118zM356 60l-130 204l130 194h118l-130 -194l130 -204h-118z" />
<glyph unicode="&#xac;" horiz-adv-x="542" d="M375 99v146h-325v102h442v-248h-117z" />
<glyph unicode="&#xad;" horiz-adv-x="600" d="M71 244v102h372v-102h-372z" />
<glyph unicode="&#xae;" horiz-adv-x="849" d="M424 -67q-148 0 -252 104t-104 252t104 252.5t252 104.5t252.5 -104.5t104.5 -252.5t-104.5 -252t-252.5 -104zM424 1q120 0 204.5 84t84.5 204t-84.5 204.5t-204.5 84.5t-204 -84.5t-84 -204.5t84 -204t204 -84zM251 86v403h190q86 0 123 -34.5t37 -98.5q0 -80 -79 -116 l94 -154h-84l-78 137h-126v-137h-77zM328 289h111q82 0 82 67q0 37 -20.5 51t-61.5 14h-111v-132z" />
<glyph unicode="&#xaf;" horiz-adv-x="317" d="M20 601v90h277v-90h-277z" />
<glyph unicode="&#xb0;" horiz-adv-x="318" d="M159 457q-54 0 -92.5 38.5t-38.5 92.5q0 55 38.5 94t92.5 39q55 0 94 -39t39 -94q0 -54 -39 -92.5t-94 -38.5zM159 520q29 0 49.5 20t20.5 48t-20.5 49t-49.5 21q-28 0 -48 -20.5t-20 -49.5q0 -28 20 -48t48 -20z" />
<glyph unicode="&#xb1;" horiz-adv-x="542" d="M212 199v104h-162v103h162v111h117v-111h163v-103h-163v-104h-117zM50 0v102h442v-102h-442z" />
<glyph unicode="&#xb2;" horiz-adv-x="319" d="M40 366l104 126q-36 8 -59.5 37t-23.5 65q0 43 32 74t77 31t77 -31t32 -74q0 -39 -25 -67l-82 -95h105v-66h-237zM170 555q16 0 27.5 11.5t11.5 27.5t-11.5 27.5t-27.5 11.5q-17 0 -28 -11.5t-11 -27.5q0 -17 11 -28t28 -11z" />
<glyph unicode="&#xb3;" horiz-adv-x="298" d="M149 358q-45 0 -77 31t-32 75h70q0 -17 11 -28.5t28 -11.5t28 11t11 28q0 16 -11.5 27.5t-27.5 11.5h-27l46 112h-114v66h202l-56 -134q58 -19 58 -83q0 -43 -32 -74t-77 -31z" />
<glyph unicode="&#xb4;" horiz-adv-x="263" d="M20 586l90 171h133l-122 -171h-101z" />
<glyph unicode="&#xb5;" horiz-adv-x="677" d="M60 -216v733h108v-334q1 -17 6.5 -32.5t18.5 -33t39 -28t63 -10.5q39 0 66 11.5t39 31t17 35t5 32.5v328h108v-311q0 -60 12 -82q25 -45 115 -45v-95q-34 0 -56 1.5t-52 8t-53 22.5t-39 41q-52 -73 -162 -73q-77 0 -127 31v-231h-108z" />
<glyph unicode="&#xb6;" horiz-adv-x="661" d="M271 0v269q-106 0 -166 53.5t-60 143.5q0 101 61 157t165 56h300v-679h-108v577h-84v-577h-108z" />
<glyph unicode="&#xb7;" horiz-adv-x="340" d="M170 266q-34 0 -57 23t-23 57q0 33 23 56.5t57 23.5q33 0 56.5 -23.5t23.5 -56.5q0 -34 -23.5 -57t-56.5 -23z" />
<glyph unicode="&#xb8;" horiz-adv-x="181" d="M20 -216v58q22 0 41 9t19 27q0 15 -14 24.5t-28 11.5l-15 2l19 70h71l-17 -56q7 -1 18 -4.5t29 -19.5t18 -39q0 -30 -23 -49.5t-53 -26.5t-65 -7z" />
<glyph unicode="&#xb9;" horiz-adv-x="301" d="M40 365v65h75v186h-75v64h155v-250h66v-65h-221z" />
<glyph unicode="&#xba;" horiz-adv-x="390" d="M195 248q-61 0 -103 41t-42 99q0 59 42 100t103 41q60 0 102.5 -41.5t42.5 -99.5t-42.5 -99t-102.5 -41zM195 321q29 0 49 19.5t20 47.5q0 29 -20 49t-49 20q-30 0 -49.5 -20t-19.5 -49q0 -28 19.5 -47.5t49.5 -19.5z" />
<glyph unicode="&#xbb;" horiz-adv-x="414" d="M30 60l130 204l-130 194h118l130 -194l-130 -204h-118zM220 60l130 204l-130 194h118l130 -194l-130 -204h-118z" />
<glyph unicode="&#xbc;" horiz-adv-x="637" d="M73 -57l437 757h87l-437 -757h-87zM40 365v65h75v186h-75v64h155v-250h66v-65h-221zM493 0v109h-157l122 217h81l-81 -152h120v-174h-85z" />
<glyph unicode="&#xbd;" horiz-adv-x="685" d="M84 -57l437 757h87l-437 -757h-87zM40 365v65h75v186h-75v64h155v-250h66v-65h-221zM406 1l104 126q-36 8 -59.5 37t-23.5 65q0 43 32 74t77 31t77 -31t32 -74q0 -39 -25 -67l-82 -95h105v-66h-237zM536 190q16 0 27.5 11t11.5 28q0 16 -11.5 27.5t-27.5 11.5 q-17 0 -28 -11.5t-11 -27.5q0 -17 11 -28t28 -11z" />
<glyph unicode="&#xbe;" horiz-adv-x="653" d="M89 -57l437 757h87l-437 -757h-87zM174 339q-60 0 -97 30t-37 79h85q0 -19 13.5 -31t35.5 -12t35 12t13 31q0 68 -82 55l53 109h-130v67h225l-64 -133q34 -8 59 -35.5t25 -62.5q0 -49 -37 -79t-97 -30zM506 1v109h-157l122 217h81l-81 -152h120v-174h-85z" />
<glyph unicode="&#xbf;" horiz-adv-x="529" d="M294 371q-33 0 -56.5 23.5t-23.5 56.5q0 34 23.5 57t56.5 23q34 0 57 -22.5t23 -57.5q0 -33 -23 -56.5t-57 -23.5zM345 -175q-91 0 -156 62.5t-65 150.5q0 59 31 108.5t82 77.5v79h108v-155q-47 0 -78.5 -32t-31.5 -78t31.5 -78t78.5 -32v-103z" />
<glyph unicode="&#xc0;" horiz-adv-x="753" d="M322 748l-122 171h133l90 -171h-101zM21 0l302 679h107l302 -679h-127l-65 161h-327l-65 -161h-127zM254 263h245l-122 289z" />
<glyph unicode="&#xc1;" horiz-adv-x="753" d="M326 748l90 171h133l-122 -171h-101zM21 0l302 679h107l302 -679h-127l-65 161h-327l-65 -161h-127zM254 263h245l-122 289z" />
<glyph unicode="&#xc2;" horiz-adv-x="753" d="M212 748l105 171h113l105 -171h-101l-60 83l-61 -83h-101zM21 0l302 679h107l302 -679h-127l-65 161h-327l-65 -161h-127zM254 263h245l-122 289z" />
<glyph unicode="&#xc3;" horiz-adv-x="753" d="M447 743q-36 0 -73 26h-1v1h-1q-37 27 -53 27q-5 0 -8.5 -1.5t-6.5 -4.5t-5 -6t-3.5 -8.5t-2 -8t-2 -9.5t-1.5 -9l-83 30q8 48 31 77.5t61 29.5q36 0 73 -26h1v-1h1q37 -27 53 -27q5 0 8.5 1.5t6.5 4.5t5 6t3.5 8.5t2 8t2 9.5t1.5 9l83 -30q-8 -48 -31 -77.5t-61 -29.5z M21 0l302 679h107l302 -679h-127l-65 161h-327l-65 -161h-127zM254 263h245l-122 289z" />
<glyph unicode="&#xc4;" horiz-adv-x="753" d="M262 760q-23 0 -39.5 16t-16.5 39t16.5 39.5t39.5 16.5t39 -16.5t16 -39.5t-16.5 -39t-38.5 -16zM454 760q-23 0 -39.5 16t-16.5 39t16.5 39.5t39.5 16.5t39 -16.5t16 -39.5t-16.5 -39t-38.5 -16zM21 0l302 679h107l302 -679h-127l-65 161h-327l-65 -161h-127zM254 263 h245l-122 289z" />
<glyph unicode="&#xc5;" horiz-adv-x="753" d="M373 743q-43 0 -72.5 29.5t-29.5 72.5q0 44 29.5 74t72.5 30t73 -30.5t30 -73.5t-30 -72.5t-73 -29.5zM373 815q13 0 22 8.5t9 21.5t-9 22.5t-22 9.5t-21.5 -9t-8.5 -23q0 -13 8.5 -21.5t21.5 -8.5zM21 0l302 679h107l302 -679h-127l-65 161h-327l-65 -161h-127zM254 263 h245l-122 289z" />
<glyph unicode="&#xc6;" horiz-adv-x="1051" d="M608 102h393v-102h-502v161h-261l-113 -161h-125l487 679h508v-102h-387v-164h308v-102h-308v-209zM499 263v269l-189 -269h189z" />
<glyph unicode="&#xc7;" horiz-adv-x="704" d="M659 46l-11 -6q-11 -7 -20 -11.5t-28.5 -12.5t-39 -13.5t-48 -10t-59.5 -6.5l-15 -51q7 -1 18 -4.5t29 -19.5t18 -39q0 -30 -23 -49.5t-53 -26.5t-65 -7v58q22 0 41 9t19 27q0 15 -14 24.5t-28 11.5l-15 2l18 65q-150 11 -245 113t-93 241q-2 149 104.5 253t270.5 102 q132 0 220 -60v-115q-4 7 -31.5 23.5t-81 33t-107.5 16.5q-121 0 -191.5 -71.5t-70.5 -181.5t70.5 -181t191.5 -71q68 0 132 19.5t107 55.5v-117z" />
<glyph unicode="&#xc8;" horiz-adv-x="642" d="M390 748h-101l-122 171h133zM199 102h393v-102h-502v679h496v-102h-387v-164h308v-102h-308v-209z" />
<glyph unicode="&#xc9;" horiz-adv-x="642" d="M516 919l-122 -171h-101l90 171h133zM199 102h393v-102h-502v679h496v-102h-387v-164h308v-102h-308v-209z" />
<glyph unicode="&#xca;" horiz-adv-x="642" d="M341 831l-61 -83h-101l105 171h113l105 -171h-101zM199 102h393v-102h-502v679h496v-102h-387v-164h308v-102h-308v-209z" />
<glyph unicode="&#xcb;" horiz-adv-x="642" d="M229 760q-23 0 -39.5 16t-16.5 39t16.5 39.5t39.5 16.5t39 -16.5t16 -39.5t-16 -39t-39 -16zM421 760q-23 0 -39.5 16t-16.5 39t16.5 39.5t39.5 16.5t39 -16.5t16 -39.5t-16 -39t-39 -16zM199 102h393v-102h-502v679h496v-102h-387v-164h308v-102h-308v-209z" />
<glyph unicode="&#xcc;" horiz-adv-x="289" d="M93 748l-122 171h133l90 -171h-101zM90 0v679h109v-679h-109z" />
<glyph unicode="&#xcd;" horiz-adv-x="289" d="M97 748l90 171h133l-122 -171h-101zM90 0v679h109v-679h-109z" />
<glyph unicode="&#xce;" horiz-adv-x="289" d="M-17 748l105 171h113l105 -171h-101l-60 83l-61 -83h-101zM90 0v679h109v-679h-109z" />
<glyph unicode="&#xcf;" horiz-adv-x="289" d="M33 760q-23 0 -39.5 16t-16.5 39t16.5 39.5t39.5 16.5t39 -16.5t16 -39.5t-16 -39t-39 -16zM225 760q-23 0 -39.5 16t-16.5 39t16.5 39.5t39.5 16.5t39 -16.5t16 -39.5t-16 -39t-39 -16zM90 0v679h109v-679h-109z" />
<glyph unicode="&#xd0;" horiz-adv-x="790" d="M366 679q172 0 270.5 -94t98.5 -245q0 -150 -101 -245t-268 -95h-246v297h-120v90h120v292h246zM358 103q121 0 190.5 59t73.5 178q0 112 -67.5 174.5t-197.5 62.5h-128v-190h118v-90h-118v-194h129z" />
<glyph unicode="&#xd1;" horiz-adv-x="771" d="M459 743q-36 0 -73 26h-1v1h-1q-37 27 -53 27q-5 0 -8.5 -1.5t-6.5 -4.5t-5 -6t-3.5 -8.5t-2 -8t-2 -9.5t-1.5 -9l-83 30q8 48 31 77.5t61 29.5q36 0 73 -26h1v-1h1q37 -27 53 -27q5 0 8.5 1.5t6.5 4.5t5 6t3.5 8.5t2 8t2 9.5t1.5 9l83 -30q-8 -48 -31 -77.5t-61 -29.5z M90 0v679h125l358 -514v514h108v-679h-121l-362 523v-523h-108z" />
<glyph unicode="&#xd2;" horiz-adv-x="803" d="M350 748l-122 171h133l90 -171h-101zM401 -15q-153 -2 -255.5 102.5t-100.5 252.5q-2 148 100.5 252.5t255.5 102.5q153 2 256 -102.5t101 -252.5q2 -148 -101 -252.5t-256 -102.5zM401 88q110 0 177 71.5t67 180.5t-67 181t-177 72q-109 0 -176.5 -72t-67.5 -181 t67.5 -180.5t176.5 -71.5z" />
<glyph unicode="&#xd3;" horiz-adv-x="803" d="M354 748l90 171h133l-122 -171h-101zM401 -15q-153 -2 -255.5 102.5t-100.5 252.5q-2 148 100.5 252.5t255.5 102.5q153 2 256 -102.5t101 -252.5q2 -148 -101 -252.5t-256 -102.5zM401 88q110 0 177 71.5t67 180.5t-67 181t-177 72q-109 0 -176.5 -72t-67.5 -181 t67.5 -180.5t176.5 -71.5z" />
<glyph unicode="&#xd4;" horiz-adv-x="803" d="M240 748l105 171h113l105 -171h-101l-60 83l-61 -83h-101zM401 -15q-153 -2 -255.5 102.5t-100.5 252.5q-2 148 100.5 252.5t255.5 102.5q153 2 256 -102.5t101 -252.5q2 -148 -101 -252.5t-256 -102.5zM401 88q110 0 177 71.5t67 180.5t-67 181t-177 72 q-109 0 -176.5 -72t-67.5 -181t67.5 -180.5t176.5 -71.5z" />
<glyph unicode="&#xd5;" horiz-adv-x="803" d="M475 743q-36 0 -73 26h-1v1h-1q-37 27 -53 27q-5 0 -8.5 -1.5t-6.5 -4.5t-5 -6t-3.5 -8.5t-2 -8t-2 -9.5t-1.5 -9l-83 30q8 48 31 77.5t61 29.5q36 0 73 -26h1v-1h1q37 -27 53 -27q5 0 8.5 1.5t6.5 4.5t5 6t3.5 8.5t2 8t2 9.5t1.5 9l83 -30q-8 -48 -31 -77.5t-61 -29.5z M401 -15q-153 -2 -255.5 102.5t-100.5 252.5q-2 148 100.5 252.5t255.5 102.5q153 2 256 -102.5t101 -252.5q2 -148 -101 -252.5t-256 -102.5zM401 88q110 0 177 71.5t67 180.5t-67 181t-177 72q-109 0 -176.5 -72t-67.5 -181t67.5 -180.5t176.5 -71.5z" />
<glyph unicode="&#xd6;" horiz-adv-x="803" d="M290 760q-23 0 -39.5 16t-16.5 39t16.5 39.5t39.5 16.5t39 -16.5t16 -39.5t-16.5 -39t-38.5 -16zM482 760q-23 0 -39.5 16t-16.5 39t16.5 39.5t39.5 16.5t39 -16.5t16 -39.5t-16.5 -39t-38.5 -16zM401 -15q-153 -2 -255.5 102.5t-100.5 252.5q-2 148 100.5 252.5 t255.5 102.5q153 2 256 -102.5t101 -252.5q2 -148 -101 -252.5t-256 -102.5zM401 88q110 0 177 71.5t67 180.5t-67 181t-177 72q-109 0 -176.5 -72t-67.5 -181t67.5 -180.5t176.5 -71.5z" />
<glyph unicode="&#xd7;" horiz-adv-x="677" d="M192 111l-73 73l152 152l-152 152l73 73l152 -152l152 152l73 -73l-152 -152l152 -152l-73 -73l-152 152z" />
<glyph unicode="&#xd8;" horiz-adv-x="803" d="M697 545q63 -92 61 -205q2 -148 -101 -252.5t-256 -102.5q-129 -1 -225 75l-78 -73l-78 78l82 76q-58 90 -57 199q-2 148 100.5 252.5t255.5 102.5q125 1 220 -71l82 77l78 -78zM157 340q0 -68 27 -122l358 334q-60 41 -141 41q-109 0 -176.5 -72t-67.5 -181zM401 88 q110 0 177 71.5t67 180.5q0 72 -30 129l-360 -336q61 -45 146 -45z" />
<glyph unicode="&#xd9;" horiz-adv-x="706" d="M301 748l-122 171h133l90 -171h-101zM353 -15q-128 0 -203 67.5t-75 206.5v420h109v-418q0 -86 47.5 -128.5t121.5 -42.5q84 0 126.5 41t42.5 130v418h109v-420q0 -139 -75 -206.5t-203 -67.5z" />
<glyph unicode="&#xda;" horiz-adv-x="706" d="M305 748l90 171h133l-122 -171h-101zM353 -15q-128 0 -203 67.5t-75 206.5v420h109v-418q0 -86 47.5 -128.5t121.5 -42.5q84 0 126.5 41t42.5 130v418h109v-420q0 -139 -75 -206.5t-203 -67.5z" />
<glyph unicode="&#xdb;" horiz-adv-x="706" d="M191 748l105 171h113l105 -171h-101l-60 83l-61 -83h-101zM353 -15q-128 0 -203 67.5t-75 206.5v420h109v-418q0 -86 47.5 -128.5t121.5 -42.5q84 0 126.5 41t42.5 130v418h109v-420q0 -139 -75 -206.5t-203 -67.5z" />
<glyph unicode="&#xdc;" horiz-adv-x="706" d="M241 760q-23 0 -39.5 16t-16.5 39t16.5 39.5t39.5 16.5t39 -16.5t16 -39.5t-16 -39t-39 -16zM433 760q-23 0 -39.5 16t-16.5 39t16.5 39.5t39.5 16.5t39 -16.5t16 -39.5t-16 -39t-39 -16zM353 -15q-128 0 -203 67.5t-75 206.5v420h109v-418q0 -86 47.5 -128.5 t121.5 -42.5q84 0 126.5 41t42.5 130v418h109v-420q0 -139 -75 -206.5t-203 -67.5z" />
<glyph unicode="&#xdd;" horiz-adv-x="676" d="M513 919l-122 -171h-101l90 171h133zM525 679h131l-263 -388v-291h-110v291l-263 388h130l188 -289z" />
<glyph unicode="&#xde;" horiz-adv-x="698" d="M389 589q123 0 191.5 -65.5t68.5 -182.5q0 -113 -72 -180.5t-191 -67.5h-187v-93h-109v679h109v-90h190zM381 193q156 0 156 146q0 148 -156 148h-182v-294h182z" />
<glyph unicode="&#xdf;" horiz-adv-x="607" d="M336 -13q-24 0 -43 3v94q26 -4 43 -4q47 0 84 25t37 82t-44.5 91.5t-102.5 34.5h-17v91q50 0 88.5 26.5t38.5 83.5q0 96 -104 96q-48 0 -83.5 -36.5t-35.5 -101.5v-472h-107v317h-80v86h80v59q0 107 60.5 171.5t165.5 64.5q100 0 153 -47.5t53 -135.5q0 -56 -32.5 -95.5 t-86.5 -50.5q76 -12 120 -61.5t44 -117.5q0 -96 -65.5 -149.5t-165.5 -53.5z" />
<glyph unicode="&#xe0;" d="M279 585l-122 171h133l90 -171h-101zM310 -15q-117 0 -193.5 79t-76.5 194t76.5 194.5t193.5 79.5q109 0 174 -65v50h107v-517h-109l1 53q-66 -68 -173 -68zM318 81q74 0 123 48t49 130t-49 129.5t-123 47.5q-72 0 -121 -51.5t-49 -125.5t49 -126t121 -52z" />
<glyph unicode="&#xe1;" d="M283 585l90 171h133l-122 -171h-101zM310 -15q-117 0 -193.5 79t-76.5 194t76.5 194.5t193.5 79.5q109 0 174 -65v50h107v-517h-109l1 53q-66 -68 -173 -68zM318 81q74 0 123 48t49 130t-49 129.5t-123 47.5q-72 0 -121 -51.5t-49 -125.5t49 -126t121 -52z" />
<glyph unicode="&#xe2;" d="M169 585l105 171h113l105 -171h-101l-60 83l-61 -83h-101zM310 -15q-117 0 -193.5 79t-76.5 194t76.5 194.5t193.5 79.5q109 0 174 -65v50h107v-517h-109l1 53q-66 -68 -173 -68zM318 81q74 0 123 48t49 130t-49 129.5t-123 47.5q-72 0 -121 -51.5t-49 -125.5t49 -126 t121 -52z" />
<glyph unicode="&#xe3;" d="M404 580q-36 0 -73 26h-1v1h-1q-37 27 -53 27q-5 0 -8.5 -1.5t-6.5 -4.5t-5 -6t-3.5 -8.5t-2 -8t-2 -9.5t-1.5 -9l-83 30q8 48 31 77.5t61 29.5q36 0 73 -26h1v-1h1q37 -27 53 -27q5 0 8.5 1.5t6.5 4.5t5 6t3.5 8.5t2 8t2 9.5t1.5 9l83 -30q-8 -48 -31 -77.5t-61 -29.5z M310 -15q-117 0 -193.5 79t-76.5 194t76.5 194.5t193.5 79.5q109 0 174 -65v50h107v-517h-109l1 53q-66 -68 -173 -68zM318 81q74 0 123 48t49 130t-49 129.5t-123 47.5q-72 0 -121 -51.5t-49 -125.5t49 -126t121 -52z" />
<glyph unicode="&#xe4;" d="M219 597q-23 0 -39.5 16t-16.5 39t16.5 39.5t39.5 16.5t39 -16.5t16 -39.5q0 -22 -16 -38.5t-39 -16.5zM411 597q-23 0 -39.5 16t-16.5 39t16.5 39.5t39.5 16.5t39 -16.5t16 -39.5q0 -22 -16 -38.5t-39 -16.5zM310 -15q-117 0 -193.5 79t-76.5 194t76.5 194.5t193.5 79.5 q109 0 174 -65v50h107v-517h-109l1 53q-66 -68 -173 -68zM318 81q74 0 123 48t49 130t-49 129.5t-123 47.5q-72 0 -121 -51.5t-49 -125.5t49 -126t121 -52z" />
<glyph unicode="&#xe5;" d="M330 580q-43 0 -72.5 29.5t-29.5 72.5q0 44 29.5 74t72.5 30t73 -30.5t30 -73.5t-30 -72.5t-73 -29.5zM330 652q13 0 22 8.5t9 21.5t-9 22.5t-22 9.5t-21.5 -9t-8.5 -23q0 -13 8.5 -21.5t21.5 -8.5zM310 -15q-117 0 -193.5 79t-76.5 194t76.5 194.5t193.5 79.5 q109 0 174 -65v50h107v-517h-109l1 53q-66 -68 -173 -68zM318 81q74 0 123 48t49 130t-49 129.5t-123 47.5q-72 0 -121 -51.5t-49 -125.5t49 -126t121 -52z" />
<glyph unicode="&#xe6;" horiz-adv-x="973" d="M933 233h-408v-24q15 -57 60.5 -92.5t119.5 -35.5q20 0 40 2t37 5t32.5 7t28 8.5t23.5 9t19 8.5t13.5 7t8.5 5l3 2v-97q-2 -2 -7 -5.5t-22.5 -13t-39 -16.5t-59 -12.5t-79.5 -5.5q-148 0 -227 99q-64 -99 -222 -99q-94 0 -154 48.5t-60 125.5q0 79 60 127.5t154 48.5 q96 0 163 -34v13q0 123 -152 123q-88 0 -166 -38v99q68 35 178 35q150 0 212 -87q81 86 207 86q107 0 172 -74.5t65 -174.5v-50zM682 444q-74 0 -112 -41.5t-45 -85.5h300q-2 19 -8.5 37.5t-21.5 40.5t-44 35.5t-69 13.5zM274 73q71 0 107 23t36 63q0 44 -38 66t-105 22 q-57 0 -93.5 -23t-36.5 -65q0 -43 38.5 -64.5t91.5 -21.5z" />
<glyph unicode="&#xe7;" horiz-adv-x="553" d="M518 34q-48 -38 -151 -48l-16 -51q7 -1 18 -4.5t29 -19.5t18 -39q0 -30 -23 -49.5t-53 -26.5t-65 -7v58q22 0 41 9t19 27q0 15 -14.5 24.5t-28.5 11.5l-14 2l18 66q-122 10 -189 86t-67 186q0 115 79.5 194t203.5 79q119 0 185 -62v-111q-2 3 -7 8.5t-22.5 19t-37 23.5 t-51.5 18.5t-67 8.5q-76 0 -127 -52t-51 -126q0 -81 51 -130t137 -49q54 0 100 13.5t65 26.5l20 14v-100z" />
<glyph unicode="&#xe8;" horiz-adv-x="596" d="M267 585l-122 171h133l90 -171h-101zM326 -15q-132 0 -209 79t-77 195q0 117 79.5 195t199.5 78q107 0 172 -74.5t65 -174.5v-50h-413q10 -66 56.5 -109t128.5 -43q20 0 40 2t37 5t32.5 7t28 8.5t23.5 9t19 8.5t13.5 7t8.5 5l3 2v-97q-2 -2 -7 -5.5t-22.5 -13t-39 -16.5 t-59 -12.5t-79.5 -5.5zM148 317h300q-2 19 -8.5 37.5t-21.5 40.5t-44 35.5t-69 13.5q-74 0 -112 -41.5t-45 -85.5z" />
<glyph unicode="&#xe9;" horiz-adv-x="596" d="M271 585l90 171h133l-122 -171h-101zM326 -15q-132 0 -209 79t-77 195q0 117 79.5 195t199.5 78q107 0 172 -74.5t65 -174.5v-50h-413q10 -66 56.5 -109t128.5 -43q20 0 40 2t37 5t32.5 7t28 8.5t23.5 9t19 8.5t13.5 7t8.5 5l3 2v-97q-2 -2 -7 -5.5t-22.5 -13t-39 -16.5 t-59 -12.5t-79.5 -5.5zM148 317h300q-2 19 -8.5 37.5t-21.5 40.5t-44 35.5t-69 13.5q-74 0 -112 -41.5t-45 -85.5z" />
<glyph unicode="&#xea;" horiz-adv-x="596" d="M157 585l105 171h113l105 -171h-101l-60 83l-61 -83h-101zM326 -15q-132 0 -209 79t-77 195q0 117 79.5 195t199.5 78q107 0 172 -74.5t65 -174.5v-50h-413q10 -66 56.5 -109t128.5 -43q20 0 40 2t37 5t32.5 7t28 8.5t23.5 9t19 8.5t13.5 7t8.5 5l3 2v-97q-2 -2 -7 -5.5 t-22.5 -13t-39 -16.5t-59 -12.5t-79.5 -5.5zM148 317h300q-2 19 -8.5 37.5t-21.5 40.5t-44 35.5t-69 13.5q-74 0 -112 -41.5t-45 -85.5z" />
<glyph unicode="&#xeb;" horiz-adv-x="596" d="M207 597q-23 0 -39.5 16t-16.5 39t16.5 39.5t39.5 16.5t39 -16.5t16 -39.5q0 -22 -16 -38.5t-39 -16.5zM399 597q-23 0 -39.5 16t-16.5 39t16.5 39.5t39.5 16.5t39 -16.5t16 -39.5q0 -22 -16 -38.5t-39 -16.5zM326 -15q-132 0 -209 79t-77 195q0 117 79.5 195t199.5 78 q107 0 172 -74.5t65 -174.5v-50h-413q10 -66 56.5 -109t128.5 -43q20 0 40 2t37 5t32.5 7t28 8.5t23.5 9t19 8.5t13.5 7t8.5 5l3 2v-97q-2 -2 -7 -5.5t-22.5 -13t-39 -16.5t-59 -12.5t-79.5 -5.5zM148 317h300q-2 19 -8.5 37.5t-21.5 40.5t-44 35.5t-69 13.5 q-74 0 -112 -41.5t-45 -85.5z" />
<glyph unicode="&#xec;" horiz-adv-x="274" d="M89 585l-122 171h133l90 -171h-101zM86 0v517h108v-517h-108z" />
<glyph unicode="&#xed;" horiz-adv-x="274" d="M93 585l90 171h133l-122 -171h-101zM86 0v517h108v-517h-108z" />
<glyph unicode="&#xee;" horiz-adv-x="274" d="M-21 585l105 171h113l105 -171h-101l-60 83l-61 -83h-101zM86 0v517h108v-517h-108z" />
<glyph unicode="&#xef;" horiz-adv-x="274" d="M29 597q-23 0 -39.5 16t-16.5 39t16.5 39.5t39.5 16.5t39 -16.5t16 -39.5q0 -22 -16 -38.5t-39 -16.5zM221 597q-23 0 -39.5 16t-16.5 39t16.5 39.5t39.5 16.5t39 -16.5t16 -39.5q0 -22 -16 -38.5t-39 -16.5zM86 0v517h108v-517h-108z" />
<glyph unicode="&#xf0;" horiz-adv-x="589" d="M295 -15q-115 0 -185 64t-70 168q0 105 67 169t177 64q55 0 100 -23t71 -58q-30 116 -111 165l-25 -56l-81 39l23 50q-63 15 -160 15v94q115 0 197 -27l21 47l80 -40l-19 -42q169 -99 169 -341q0 -140 -70.5 -214t-183.5 -74zM295 81q65 0 106 41.5t41 97.5 q0 60 -42.5 97t-115.5 37q-61 0 -98.5 -37t-37.5 -97q0 -62 40.5 -100.5t106.5 -38.5z" />
<glyph unicode="&#xf1;" horiz-adv-x="633" d="M294 634q-5 0 -8.5 -1.5t-6.5 -4.5t-5 -6t-3.5 -8.5t-2 -8t-2 -9.5t-1.5 -9l-83 30q8 48 31 77.5t61 29.5q36 0 73 -26h1v-1h1q37 -27 53 -27q5 0 8.5 1.5t6.5 4.5t5 6t3.5 8.5t2 8t2 9.5t1.5 9l83 -30q-8 -48 -31 -77.5t-61 -29.5q-36 0 -73 26h-1v1h-1q-37 27 -53 27z M355 533q91 0 149.5 -56t58.5 -159v-318h-108v307q0 62 -31 96t-85 34q-60 0 -102.5 -38.5t-42.5 -107.5v-291h-108v517h108v-64q1 3 4.5 8.5t16 19.5t29 24.5t46.5 19t65 8.5z" />
<glyph unicode="&#xf2;" horiz-adv-x="646" d="M271 585l-122 171h133l90 -171h-101zM323 -15q-118 0 -200.5 80t-82.5 193t82.5 193.5t200.5 80.5t200.5 -80.5t82.5 -193.5t-82.5 -193t-200.5 -80zM323 82q76 0 127.5 51.5t51.5 124.5q0 74 -51.5 125.5t-127.5 51.5t-127.5 -51.5t-51.5 -125.5q0 -73 51.5 -124.5 t127.5 -51.5z" />
<glyph unicode="&#xf3;" horiz-adv-x="646" d="M275 585l90 171h133l-122 -171h-101zM323 -15q-118 0 -200.5 80t-82.5 193t82.5 193.5t200.5 80.5t200.5 -80.5t82.5 -193.5t-82.5 -193t-200.5 -80zM323 82q76 0 127.5 51.5t51.5 124.5q0 74 -51.5 125.5t-127.5 51.5t-127.5 -51.5t-51.5 -125.5q0 -73 51.5 -124.5 t127.5 -51.5z" />
<glyph unicode="&#xf4;" horiz-adv-x="646" d="M161 585l105 171h113l105 -171h-101l-60 83l-61 -83h-101zM323 -15q-118 0 -200.5 80t-82.5 193t82.5 193.5t200.5 80.5t200.5 -80.5t82.5 -193.5t-82.5 -193t-200.5 -80zM323 82q76 0 127.5 51.5t51.5 124.5q0 74 -51.5 125.5t-127.5 51.5t-127.5 -51.5t-51.5 -125.5 q0 -73 51.5 -124.5t127.5 -51.5z" />
<glyph unicode="&#xf5;" horiz-adv-x="646" d="M396 580q-36 0 -73 26h-1v1h-1q-37 27 -53 27q-5 0 -8.5 -1.5t-6.5 -4.5t-5 -6t-3.5 -8.5t-2 -8t-2 -9.5t-1.5 -9l-83 30q8 48 31 77.5t61 29.5q36 0 73 -26h1v-1h1q37 -27 53 -27q5 0 8.5 1.5t6.5 4.5t5 6t3.5 8.5t2 8t2 9.5t1.5 9l83 -30q-8 -48 -31 -77.5t-61 -29.5z M323 -15q-118 0 -200.5 80t-82.5 193t82.5 193.5t200.5 80.5t200.5 -80.5t82.5 -193.5t-82.5 -193t-200.5 -80zM323 82q76 0 127.5 51.5t51.5 124.5q0 74 -51.5 125.5t-127.5 51.5t-127.5 -51.5t-51.5 -125.5q0 -73 51.5 -124.5t127.5 -51.5z" />
<glyph unicode="&#xf6;" horiz-adv-x="646" d="M211 597q-23 0 -39.5 16t-16.5 39t16.5 39.5t39.5 16.5t39 -16.5t16 -39.5q0 -22 -16 -38.5t-39 -16.5zM403 597q-23 0 -39.5 16t-16.5 39t16.5 39.5t39.5 16.5t39 -16.5t16 -39.5q0 -22 -16 -38.5t-39 -16.5zM323 -15q-118 0 -200.5 80t-82.5 193t82.5 193.5t200.5 80.5 t200.5 -80.5t82.5 -193.5t-82.5 -193t-200.5 -80zM323 82q76 0 127.5 51.5t51.5 124.5q0 74 -51.5 125.5t-127.5 51.5t-127.5 -51.5t-51.5 -125.5q0 -73 51.5 -124.5t127.5 -51.5z" />
<glyph unicode="&#xf7;" horiz-adv-x="585" d="M293 359q-35 0 -57.5 22.5t-22.5 57.5q0 33 23 56.5t57 23.5q33 0 56.5 -23.5t23.5 -56.5q0 -34 -23.5 -57t-56.5 -23zM71 206v102h443v-102h-443zM293 -7q-35 0 -57.5 22.5t-22.5 57.5q0 33 23 56.5t57 23.5q33 0 56.5 -23.5t23.5 -56.5q0 -34 -23.5 -57t-56.5 -23z" />
<glyph unicode="&#xf8;" horiz-adv-x="646" d="M606 454l-47 -45q47 -67 47 -151q0 -113 -82.5 -193t-200.5 -80q-86 0 -157 46l-48 -46l-78 78l46 45q-46 68 -46 150q0 113 82.5 193.5t200.5 80.5q86 0 157 -46l48 46zM144 258q0 -42 18 -78l245 235q-38 20 -84 20q-76 0 -127.5 -51.5t-51.5 -125.5zM502 258 q0 43 -18 79l-245 -235q38 -20 84 -20q76 0 127.5 51.5t51.5 124.5z" />
<glyph unicode="&#xf9;" horiz-adv-x="610" d="M253 585l-122 171h133l90 -171h-101zM305 -16q-235 0 -235 225v308h108v-311q0 -5 0.5 -13.5t6.5 -30.5t17.5 -39t38.5 -30.5t64 -13.5t64 13t38.5 32t18 37.5t6.5 31.5v13v311h108v-308q0 -225 -235 -225z" />
<glyph unicode="&#xfa;" horiz-adv-x="610" d="M257 585l90 171h133l-122 -171h-101zM305 -16q-235 0 -235 225v308h108v-311q0 -5 0.5 -13.5t6.5 -30.5t17.5 -39t38.5 -30.5t64 -13.5t64 13t38.5 32t18 37.5t6.5 31.5v13v311h108v-308q0 -225 -235 -225z" />
<glyph unicode="&#xfb;" horiz-adv-x="610" d="M143 585l105 171h113l105 -171h-101l-60 83l-61 -83h-101zM305 -16q-235 0 -235 225v308h108v-311q0 -5 0.5 -13.5t6.5 -30.5t17.5 -39t38.5 -30.5t64 -13.5t64 13t38.5 32t18 37.5t6.5 31.5v13v311h108v-308q0 -225 -235 -225z" />
<glyph unicode="&#xfc;" horiz-adv-x="610" d="M193 597q-23 0 -39.5 16t-16.5 39t16.5 39.5t39.5 16.5t39 -16.5t16 -39.5q0 -22 -16 -38.5t-39 -16.5zM385 597q-23 0 -39.5 16t-16.5 39t16.5 39.5t39.5 16.5t39 -16.5t16 -39.5q0 -22 -16 -38.5t-39 -16.5zM305 -16q-235 0 -235 225v308h108v-311q0 -5 0.5 -13.5 t6.5 -30.5t17.5 -39t38.5 -30.5t64 -13.5t64 13t38.5 32t18 37.5t6.5 31.5v13v311h108v-308q0 -225 -235 -225z" />
<glyph unicode="&#xfd;" horiz-adv-x="586" d="M245 585l90 171h133l-122 -171h-101zM102 -208l135 268l-217 457h113l160 -343l160 343h113l-349 -725h-115z" />
<glyph unicode="&#xfe;" horiz-adv-x="673" d="M81 -212v891l108 18v-230q65 65 174 65q117 0 193.5 -79.5t76.5 -194.5t-76.5 -194t-193.5 -79q-110 0 -174 70v-267h-108zM365 81q72 0 117.5 51t45.5 126t-46 126.5t-117 51.5q-76 0 -129 -48t-53 -130q0 -81 53 -129t129 -48z" />
<glyph unicode="&#xff;" horiz-adv-x="586" d="M181 597q-23 0 -39.5 16t-16.5 39t16.5 39.5t39.5 16.5t39 -16.5t16 -39.5q0 -22 -16 -38.5t-39 -16.5zM373 597q-23 0 -39.5 16t-16.5 39t16.5 39.5t39.5 16.5t39 -16.5t16 -39.5q0 -22 -16 -38.5t-39 -16.5zM102 -208l135 268l-217 457h113l160 -343l160 343h113 l-349 -725h-115z" />
<glyph unicode="&#x152;" horiz-adv-x="1197" d="M754 102h393v-102h-502v76q-102 -92 -244 -91q-153 -2 -255.5 102.5t-100.5 252.5q-2 148 100.5 252.5t255.5 102.5q142 1 244 -91v75h496v-102h-387v-164h308v-102h-308v-209zM401 88q110 0 177 71.5t67 180.5t-67 181t-177 72q-109 0 -176.5 -72t-67.5 -181 t67.5 -180.5t176.5 -71.5z" />
<glyph unicode="&#x153;" horiz-adv-x="1058" d="M1018 283v-50h-413q10 -66 56.5 -109t128.5 -43q20 0 40 2t37 5t32.5 7t28 8.5t23.5 9t19 8.5t13.5 7t8.5 5l3 2v-97q-2 -2 -7 -5.5t-22.5 -13t-39 -16.5t-59 -12.5t-79.5 -5.5q-157 0 -237 111q-39 -51 -99 -81t-129 -30q-118 0 -200.5 80t-82.5 193t82.5 193.5 t200.5 80.5q69 0 129.5 -30.5t99.5 -82.5q37 53 97 83t132 30q107 0 172 -74.5t65 -174.5zM610 317h300q-2 19 -8.5 37.5t-21.5 40.5t-44 35.5t-69 13.5q-74 0 -112 -41.5t-45 -85.5zM323 82q76 0 127.5 51.5t51.5 124.5q0 74 -51.5 125.5t-127.5 51.5t-127.5 -51.5 t-51.5 -125.5q0 -73 51.5 -124.5t127.5 -51.5z" />
<glyph unicode="&#x178;" horiz-adv-x="676" d="M226 760q-23 0 -39.5 16t-16.5 39t16.5 39.5t39.5 16.5t39 -16.5t16 -39.5t-16.5 -39t-38.5 -16zM418 760q-23 0 -39.5 16t-16.5 39t16.5 39.5t39.5 16.5t39 -16.5t16 -39.5t-16.5 -39t-38.5 -16zM525 679h131l-263 -388v-291h-110v291l-263 388h130l188 -289z" />
<glyph unicode="&#x2c6;" horiz-adv-x="363" d="M20 586l105 171h113l105 -171h-101l-60 83l-61 -83h-101z" />
<glyph unicode="&#x2dc;" horiz-adv-x="372" d="M260 581q-36 0 -73 26h-1v1h-1q-37 27 -53 27q-5 0 -8.5 -1.5t-6.5 -4.5t-5 -6t-3.5 -8.5t-2 -8t-2 -9.5t-1.5 -9l-83 30q8 48 31 77.5t61 29.5q36 0 73 -26h1v-1h1q37 -27 53 -27q5 0 8.5 1.5t6.5 4.5t5 6t3.5 8.5t2 8t2 9.5t1.5 9l83 -30q-8 -48 -31 -77.5t-61 -29.5z " />
<glyph unicode="&#x2000;" horiz-adv-x="474" />
<glyph unicode="&#x2001;" horiz-adv-x="949" />
<glyph unicode="&#x2002;" horiz-adv-x="474" />
<glyph unicode="&#x2003;" horiz-adv-x="949" />
<glyph unicode="&#x2004;" horiz-adv-x="316" />
<glyph unicode="&#x2005;" horiz-adv-x="237" />
<glyph unicode="&#x2006;" horiz-adv-x="158" />
<glyph unicode="&#x2007;" horiz-adv-x="158" />
<glyph unicode="&#x2008;" horiz-adv-x="118" />
<glyph unicode="&#x2009;" horiz-adv-x="189" />
<glyph unicode="&#x200a;" horiz-adv-x="52" />
<glyph unicode="&#x2010;" horiz-adv-x="514" d="M71 244v102h372v-102h-372z" />
<glyph unicode="&#x2011;" horiz-adv-x="514" d="M71 244v102h372v-102h-372z" />
<glyph unicode="&#x2012;" horiz-adv-x="514" d="M71 244v102h372v-102h-372z" />
<glyph unicode="&#x2013;" horiz-adv-x="585" d="M71 244v102h443v-102h-443z" />
<glyph unicode="&#x2014;" horiz-adv-x="825" d="M71 244v102h683v-102h-683z" />
<glyph unicode="&#x2018;" horiz-adv-x="297" d="M78 402l34 296h129l-76 -296h-87z" />
<glyph unicode="&#x2019;" horiz-adv-x="297" d="M63 402l76 296h87l-34 -296h-129z" />
<glyph unicode="&#x201a;" horiz-adv-x="263" d="M20 -151l90 256h133l-121 -256h-102z" />
<glyph unicode="&#x201c;" horiz-adv-x="514" d="M75 402l96 296h87l-54 -296h-129zM264 402l76 296h87l-34 -296h-129z" />
<glyph unicode="&#x201d;" horiz-adv-x="514" d="M75 402l34 296h129l-76 -296h-87zM244 402l54 296h129l-96 -296h-87z" />
<glyph unicode="&#x201e;" horiz-adv-x="263" d="M110 105h133l-121 -256h-102z" />
<glyph unicode="&#x2022;" horiz-adv-x="371" d="M185 170q-49 0 -84 35t-35 84q0 50 35 85t84 35t84.5 -35.5t35.5 -84.5t-35 -84t-85 -35z" />
<glyph unicode="&#x2026;" horiz-adv-x="856" d="M172 -7q-34 0 -57 22.5t-23 57.5q0 33 23 56.5t57 23.5q33 0 56.5 -23.5t23.5 -56.5q0 -34 -23.5 -57t-56.5 -23zM425 -7q-35 0 -57.5 22.5t-22.5 57.5q0 33 23 56.5t57 23.5q33 0 56.5 -23.5t23.5 -56.5q0 -34 -23.5 -57t-56.5 -23zM680 -7q-34 0 -57 22.5t-23 57.5 q0 33 23 56.5t57 23.5q33 0 56.5 -23.5t23.5 -56.5q0 -34 -23.5 -57t-56.5 -23z" />
<glyph unicode="&#x202f;" horiz-adv-x="189" />
<glyph unicode="&#x2039;" horiz-adv-x="304" d="M166 60l-130 204l130 194h118l-130 -194l130 -204h-118z" />
<glyph unicode="&#x203a;" horiz-adv-x="304" d="M20 60l130 204l-130 194h118l130 -194l-130 -204h-118z" />
<glyph unicode="&#x205f;" horiz-adv-x="237" />
<glyph unicode="&#x20ac;" horiz-adv-x="601" d="M550 -16q-89 0 -166.5 23.5t-140.5 80t-88 139.5h-104v103h89v8q0 29 2 43h-91v103h116q45 106 150 159.5t233 53.5v-109q-73 0 -139 -26t-106 -78h154v-103h-197q-3 -21 -3 -43v-8h200v-103h-175q34 -68 107.5 -101t158.5 -33v-109z" />
<glyph unicode="&#x2122;" horiz-adv-x="742" d="M146 365v251h-106v62h290v-62h-104v-251h-80zM361 365v313h101l70 -136l71 136h99v-313h-75v224l-58 -110h-74l-58 110v-224h-76z" />
<glyph unicode="&#x25fc;" horiz-adv-x="515" d="M0 515h515v-515h-515v515z" />
<glyph unicode="&#xfb03;" horiz-adv-x="1127" d="M160 0v370h-110v88h110q0 103 61 166t158 63q105 0 156 -79q58 109 187 109q49 0 85.5 -13.5t48.5 -27.5l12 -13v-96q-6 6 -16.5 15t-44.5 24t-70 15q-63 0 -95 -38t-32 -125h347v-380h120v-78h-348v78h120v292h-239v-370h-108v370h-234v-370h-108zM268 458h234 q0 17 2 45q-8 16 -20 32.5t-41 36t-61 19.5q-114 0 -114 -133z" />
<glyph unicode="&#xfb04;" horiz-adv-x="1043" d="M160 0v370h-110v88h110q0 103 61 166t158 63q46 0 82.5 -17.5t51 -33t24.5 -32.5q31 54 83.5 83.5t116.5 29.5q50 0 91.5 -13t65.5 -31.5t40.5 -37.5t22.5 -32l6 -13l-2 -1l2 -1v-588h-108v563l-3 6t-10.5 14t-20 17.5t-33 14t-46.5 6.5q-132 0 -132 -163h163v-88h-163 v-370h-108v370h-234v-370h-108zM268 458h234q0 30 2 44q-5 11 -13.5 23t-24 28.5t-37.5 27t-47 10.5q-114 0 -114 -133z" />
</font>
</defs>
</svg>
